<?xml version="1.0" encoding="utf-8"?><!-- Uploaded to: SVG Repo, www.svgrepo.com, Generator: SVG Repo Mixer Tools -->
<svg width="800px" height="800px" viewBox="0 0 24 24" fill="none" xmlns="http://www.w3.org/2000/svg">
<path d="M9.00024 10.5001V15.0001M9.00024 15.0001H13.5002M9.00024 15.0001L15.0002 9M7.20024 20H16.8002C17.9203 20 18.4804 20 18.9082 19.782C19.2845 19.5903 19.5905 19.2843 19.7823 18.908C20.0002 18.4802 20.0002 17.9201 20.0002 16.8V7.2C20.0002 6.0799 20.0002 5.51984 19.7823 5.09202C19.5905 4.71569 19.2845 4.40973 18.9082 4.21799C18.4804 4 17.9203 4 16.8002 4H7.20024C6.08014 4 5.52009 4 5.09226 4.21799C4.71594 4.40973 4.40998 4.71569 4.21823 5.09202C4.00024 5.51984 4.00024 6.07989 4.00024 7.2V16.8C4.00024 17.9201 4.00024 18.4802 4.21823 18.908C4.40998 19.2843 4.71594 19.5903 5.09226 19.782C5.52009 20 6.08014 20 7.20024 20Z" stroke="#000000" stroke-width="2" stroke-linecap="round" stroke-linejoin="round"/>
</svg>